<svg xmlns="http://www.w3.org/2000/svg" xmlns:xlink="http://www.w3.org/1999/xlink" width="0" height="0" style="position:absolute">
	
		<symbol id="icon-search" viewBox="0 0 16 16">
			<path d="M14.5 13.793l-3.776-3.776c0.907-1.089 1.36-2.487 1.263-3.901s-0.735-2.737-1.782-3.693c-1.047-0.956-2.422-1.471-3.84-1.439s-2.768 0.61-3.77 1.612c-1.002 1.002-1.58 2.353-1.612 3.77s0.483 2.793 1.439 3.839c0.956 1.047 2.279 1.685 3.693 1.782s2.812-0.356 3.901-1.263l3.776 3.776 0.707-0.707zM2 6.5c0-0.89 0.264-1.76 0.758-2.5s1.197-1.317 2.020-1.657c0.822-0.341 1.727-0.43 2.6-0.256s1.675 0.602 2.304 1.232c0.629 0.629 1.058 1.431 1.232 2.304s0.085 1.778-0.256 2.6-0.917 1.525-1.657 2.020c-0.74 0.495-1.61 0.758-2.5 0.758-1.193-0.001-2.337-0.476-3.181-1.319s-1.318-1.987-1.319-3.181z"></path>
		</symbol>
	
</svg>
